# xmcd CD Database Entry
#
# Track frame offsets:
# 150
# 13156
# 24663
# 38074
# 51758
# 64777
# 75526
# 87495
# 100454
# 113256
# 125122
# 138774
# 150808
# 162397
# 175463
# 189007
# 200464
# 212575
# 223982
# 235333
#
# Disc length: 3297 seconds
#
# Revision: 2
# Processed by: cddbd v1.4PL0 Copyright (c) Steve Scherf et al.
# Submitted via: tcd 2.0b
#
DISCID=0d0cdf14
DTITLE=Robert Johnson - The Complete Recordings [CD1]
DYEAR=1900
DGENRE=
TTITLE0=Kindhearted Woman Blues
TTITLE1=Kindhearted Woman Blues
TTITLE2=I Believe I'll Dust My Broom
TTITLE3=Sweet Home Chicago
TTITLE4=Rambling On My Mind
TTITLE5=Rambling On My Mind
TTITLE6=When You Got A Good Friend
TTITLE7=When You Got A Good Friend
TTITLE8=Come On In My Kitchen
TTITLE9=Com On In My Kitchen
TTITLE10=Terraplane Blues
TTITLE11=Phongraph Blues
TTITLE12=Phonograph Blues
TTITLE13=32-20 Blues
TTITLE14=They're Red Hot
TTITLE15=Dead Shrimp Blues
TTITLE16=Cross Roads Blues
TTITLE17=Cross Roads Blues
TTITLE18=Walking Blues
TTITLE19=Last Fair Deal Gone Down
EXTD=
EXTT0=
EXTT1=
EXTT2=
EXTT3=
EXTT4=
EXTT5=
EXTT6=
EXTT7=
EXTT8=
EXTT9=
EXTT10=
EXTT11=
EXTT12=
EXTT13=
EXTT14=
EXTT15=
EXTT16=
EXTT17=
EXTT18=
EXTT19=
PLAYORDER=
